<svg id="圖層_1" data-name="圖層 1" xmlns="http://www.w3.org/2000/svg" viewBox="0 0 353.65 297.43"><defs><style>.cls-1{fill:#f7981d;}.cls-2{fill:#de2627;}</style></defs><title>logo</title><path class="cls-1" d="M8.11,178.87H10q1.36-.42,13.43,9.43l.68,2.12v1.11q.34,2.46-4.25,4.59h-1.7q-.68.51-6.8-4.59l-5.78-3.91q-.85-.17-1.7-3.23V183.2Q3,181.33,8.11,178.87Zm10.2,20.82H20q2-.34,4.08,3.91l.17.59v1.27q-1.7,9.94-9,27.19a6.11,6.11,0,0,1-3.74,3.74l-.51.17H9.3a5.35,5.35,0,0,1-4.08-4.08L5.05,232v-1.19a164.41,164.41,0,0,0,9.69-28.72A4.39,4.39,0,0,1,18,199.86Zm33.14-46.31h1.7q4.76.51,4.76,6.88-.34,1.11.51,1.36H81.19q3.91,1.19,4.25,4.25l.17.34v1.19q-.17,3.4-4.42,4.85H52.64l-7.31,13.17,21.07-1.53.17-.17-2.21-3.23-.17-2.21q-.34-2.38,4.08-4.25H70q3-.68,15.3,19.63l.17.43v1.36q0,2.89-4.08,4.42h-1.7q-3.06-.51-6.29-6.37h-.17l-.51.51v30q-.34.34,1.19,1.36h.85q1.36-1,1.19-1.36v-9.86q-.85-1.87,4.25-4.42h1.7q2-.34,4.08,3.91l.17.51v9.35q-.85,10.28-8.5,12.07,0,.51-5.61.34h-.68q-7.14-.85-8.84-8.5V194.08l-5.61.51-.51.51v37.05q.34,2.38-4.25,4.67h-1.7a5.54,5.54,0,0,1-4.08-4.16l-.17-.51v-36.2l-.51-.51-3.91.34-.51.51v12.92q-.68,14.11-11.73,26a6.56,6.56,0,0,1-2.89,1.61H24.77q-3.91-1.27-4.42-4.5l-.17-.51v-1.19q-.85-.94,5.1-7.48,4.59-5.27,5.78-16.83v-8.92q-4.59-.51-5.78-4.5l-.17-2q1-4.84,6.8-4.5Q36,182,40.74,172.24H26.81l-1.36-.51q-2.55,3.57-3.23,3l-.85.42h-1.7q-.85.76-6.46-5.35a38.9,38.9,0,0,1-6.12-6.12A5.37,5.37,0,0,1,6.75,161q-.85-2,4.25-4.5h1.87q2.21,0,9.86,8.07h.17a4.77,4.77,0,0,1,3.57-2.8l.34-.17H46.18q.68.34.51-2.89Q46.69,154.65,51.45,153.37Z"/><path class="cls-1" d="M94.45,178.7h1.87a55.26,55.26,0,0,1,14.11,11.73l.51,1.61v1.27q-.17,3-4.42,4.51h-1.87q-.85.85-8.67-6.63l-4.76-3.91q-1.53-2.38-1.19-2.89V183.2Q89.86,180.31,94.45,178.7Zm9.52,22.1h1.87q3.91,1.11,4.42,4.33l.17.34v1.19a116.8,116.8,0,0,1-10,26.94q-.68,1.61-3.57,2.63h-2q-4.25-1.36-4.42-4.76v-1.19q-.51-.25,3.06-6.8,2.72-4.5,6.8-20.23a5.26,5.26,0,0,1,3.06-2.29Zm33.82-48.69h1.87q5.95,1.62,4.93,8.33l.51.59h16.83q3.4.17,4.76,5v29a6.18,6.18,0,0,1-1.53,3.39q4.42-.34,5.95,4.59v1.44q-.51,4-13.26,12.83v.51a61.29,61.29,0,0,0,9.69,5.44,7,7,0,0,1,6.12,5.44v1.44q0,3.4-4.93,5.18h-1.87q-26.34-9.86-37.9-34l-.68-.93h-4.59l-.51.51V223.4q3.06-.17,14.11-3.06h.93q3.82,1.19,4.16,4.25l.17.34v1.27q1.7,4.16-13.77,7a97.15,97.15,0,0,1-21.08,2.29q-4.25-1.36-4.42-4.76v-1.1q.51-5.18,9.18-4.84l.51-.34V169.92c-.34.11-.45.23-.34.34v.51q-1.36,3.39-4.25,3.9h-1.87q-.94,1.1-8.16-6.87l-5.1-5.34q-1-1.61-.68-2.21l-.17-.17v-1q-.85-1.78,4.25-4.42h1.87q7.31,4.08,13.94,12.9l.34,1.19.17-.25V168q-.85-4.83,4.42-6.78l.34-.17h14.62q.68.34.51-3Q132.35,153.88,137.79,152.1ZM124.37,171.3a2.43,2.43,0,0,0-1.19,1.19v3.14l.51.42H156l.51-.42v-3.14a4,4,0,0,0-1.19-1.19Zm-.68,14.28-.51.59v3.57l.51.51H155.3q1.36-1.1,1.19-1.45v-2.63l-.51-.59Zm38.41,14.79H140.51v.34a75.38,75.38,0,0,0,7.82,9.43l.85.68A105.87,105.87,0,0,0,162.1,200.37Z"/><path class="cls-1" d="M118.22,101.19H119a2.41,2.41,0,0,1,2,2l.07.15v.48a33.86,33.86,0,0,1-4.5,8.15v.15l15.65-.61.07-.07L129,108l-.36-1.15v-.48q-.13-1.48,2-2.16h.81l1,.38q3.08,2.61,9,10.48l.21.85v.48a2.53,2.53,0,0,1-2,2.2h-.81q-1.11.06-2.78-2.5l-26.95,1.43H107.6a2.41,2.41,0,0,1-2-2.23v-.52q0-2.4,4.45-2.21a49.76,49.76,0,0,0,6.51-10.24A2.4,2.4,0,0,1,118.22,101.19Zm-6.68,17.95,24.54.21q1.91.68,2,2.16l-.11,13.25a2.46,2.46,0,0,1-2,2.16l-24.54-.21a2.35,2.35,0,0,1-2-2.19l.11-13.25Q109.54,119.79,111.53,119.14Zm4,4.9q-1.19.36-1.27,1.28l-.07.18,0,4.87q-.23.74,1.32,1.49l16.49.14a2.1,2.1,0,0,0,1.27-1.24l.08-.22,0-4.87q.23-.59-1.32-1.49Z"/><path class="cls-1" d="M145,112.67h.81a13.07,13.07,0,0,1,4,3,2.81,2.81,0,0,1,.32,1v.52a2.41,2.41,0,0,1-1.71,1.94h-.81q-.3.26-3.23-2.5-.52-.08-1-1.7v-.41A1.89,1.89,0,0,1,145,112.67Zm3,9h.81a2.21,2.21,0,0,1,1.68,1.71l.07.15,0,2a47.32,47.32,0,0,1-2.82,11,2.35,2.35,0,0,1-1.63,1.2h-.81q-1.54-.53-1.68-1.71l-.07-.81a40.5,40.5,0,0,0,2.6-10.83Q145.78,122.49,148,121.66Zm7.84-19.34h.59q.44-.07,1.1,1.08l.07.22V104q.22.22-2.32,3.89l-.15.18.44.56h.07l1.71-1.87.59-.33h.59l.51.34.26-.15,8.89.08q.75-1.21,1.12-1l.07-.07h.66l.59.37,2-3.08.74-.36h.66q1.18.38,1.17,1.34v.37q.22.37-2.32,4.3l.55.48h0l1.94-2.31.52-.25h.66a1.54,1.54,0,0,1,1.1,1.26v.37q.29.41-3.06,4l-.74.84,1.7-.17.07-.07-.15-.3V112q-.22-.33,1-1.1h.66q1.18.49,2,4.15v.44q0,.63-1,1.1h-.66q-1-.6-.8-1l-.07-.07-1.7.13-.15.15,0,5q.07.7-1.34,1.35h-.66q-.59-.08-1.17-1.08l-.06-1.7,0-3.17-.22-.26-2.51.24h-.18q-1.14-.49-1.06-1.3l.08-.81-7.16-.06-.29-.22q.43,1.33.28,1.4l.07.3a1.81,1.81,0,0,1,1-.58l4.94,0q1.47.46,1.46,1.71l0,3.1q0,1.22-1.49,1.69l-4.94,0q-1.47-.49-1.46-1.71l0-3.1h.07v-.33l-.52.18h-.59c-.64-.28-.9-.57-.8-.89l-.07-.07-1.55.13-.07.07,0,5q0,.7-1.27,1.35h-.66q-.74,0-1.25-1.15l-.07-.22,0-4.91-2.51.16h-.3q-1.1-.49-1.1-1.26v-.48q.34-1.36,2.3-1.27l1.49-1.54v-.07l-2.12-2.86h-.07q-.23.51-1.41.95h-.89a15.23,15.23,0,0,1-4.1-3.58l-.22-.7v-.55q-.14-1,1.79-1.83h.81q.3-.29,3.15,2.43l.81.71h.15l.67-.36h.66l.44.22h.15l1.79-2.72A1.3,1.3,0,0,1,155.84,102.32Zm-4.33,14.13h.66q1.1.67,1,1.08v.41a21.69,21.69,0,0,1-1.21,3.61l-.74.51h-.66q-1-.6-.88-1l-.07-.15v-.33l1.21-3.57A1.12,1.12,0,0,1,151.52,116.45Zm1.35,5.73,22,.19a2.35,2.35,0,0,1,1.9,1.94l.07.11,0,2.36q.06,1.18-2,2.09l-19.33-.16-.37.62v.22l.22.22,20.22.17q1.69.57,1.83,1.9l.07.22v1q-.56,4.79-6.72,4.74l-10.77-.09-3.69-.4a2.18,2.18,0,0,1-1.61-1.86V135q.08-1.22,1.64-1.76a67,67,0,0,0,11.36.5l4.06,0a1.32,1.32,0,0,0,1-1v-.15l-.22-.22-20.11-.17q-.88-.08-1.53-1.41v-1.7l.46-1.77a2.6,2.6,0,0,1,1-1l.37-.14,19.63.17.22-.22v-.48l-.22-.26-19.56-.17a1.53,1.53,0,0,1-1.24-1.38v-.41Q151.54,122.65,152.87,122.18ZM159,108.92l-3,3.59v.15a2.18,2.18,0,0,0,1.26-.14l-.07-.44q-.14-.44.89-1h.44q.74.12,1.46,2a.73.73,0,0,1,.45-.62l7.23.06a.73.73,0,0,1,.44.63l-.08.48a2.8,2.8,0,0,1,1.63-.47l1.34-1.35v-.26l-1.75-2.41-10-.08Zm-1.24,7.52h.44q1-.25,1.52,3.26l.22.52v.37a1.23,1.23,0,0,1-1,1h-.52q-.81.36-1.59-3.74l-.07-.07v-.4A1.09,1.09,0,0,1,157.79,116.43Zm2.77-13.33,6.79.06q.44-.07.88,1v.37c0,.47-.3.81-.89,1l-6.79-.06q-1-.34-1-1v-.37Q159.37,103.75,160.56,103.1Zm-.13,6.93,7.16.06a.88.88,0,0,1,.51.67v.29a1.08,1.08,0,0,1-.52.66l-7.16-.06a.83.83,0,0,1-.59-.67v-.29C159.83,110.4,160,110.18,160.43,110Zm3,7.26-.52.47v.85a1.55,1.55,0,0,0,.51.56h1.26c.39-.27.59-.52.6-.77V118q.15-.11-.58-.67Zm6.35-.61h.52q1,.53.88,1v.55l-.61,2.87a1.35,1.35,0,0,1-.82.73h-.52a1.11,1.11,0,0,1-1-1v-.55l.76-3.09Q169.45,116.68,169.82,116.68Zm6.49,0H177q.81-.33,1.52,3.41l.14.44v.63a1.22,1.22,0,0,1-1,1h-.52q-.89.4-1.74-3.78l-.07-.15v-.55A1.11,1.11,0,0,1,176.31,116.66Z"/><circle class="cls-1" cx="279.92" cy="263.99" r="14.81"/><path class="cls-1" d="M296.2,192.17c-16.86-21.08-23.89-31.62-23.89-50.58,0-15.68,0-46.2-29.37-54.35,1.92-45.54-7.74-67.87-23.34-77.73C204.39-.1,194-1.7,186.79,1.5c-9.65,4.29,4.27,16.47,22.83,35.61,9.43,9.73,15.74,27,19.67,41.7-19.2-41.79-37.87-60-56-63-21.08-3.51-26.7-6.32-27.4,4.21s5.62,21.78,30.91,30.21c15.77,5.26,32.63,22.8,43.09,35.27-3.42,1-25,8.34-26.93,25.15-2.11,18.27,2.81,25.29-5.62,32.32a8.82,8.82,0,0,0-1.41,7.73c1.41,4.22,21.08,28.1,39.34,13.35,0,0,1.43,4.94-10.54,16.16-14.4,13.5-25.09,32.95-21.35,52.2-6.35-2.22-12.89-.74-18.68,7.95-3.2,4.8,1.79,6.39,10.41,10.41,3.55,1.66,7.74,3.88,12.1,6.18,4.83-1.88,9.31-3.76,13.35-5.6l.2-.08a17.68,17.68,0,0,1,13.5,0c6.3,2.72,12.15,5,17.47,6.91a4.49,4.49,0,0,1,1.33.74,6.38,6.38,0,0,1,2.44,5,7.42,7.42,0,0,1-2.34,5.53,6.22,6.22,0,0,1-.79.67,9.6,9.6,0,0,1,.14,1.64v.9a75.79,75.79,0,0,0,19.42-1,19.59,19.59,0,0,1,34.59-18.15,44.3,44.3,0,0,0,7.05-10.76C310.74,227.22,313.06,213.24,296.2,192.17Z"/><path class="cls-1" d="M60.25,255.24a4.17,4.17,0,0,1,2,.41,1.84,1.84,0,0,1,1,1.79q-.14,1.05-.32,2a63.83,63.83,0,0,1-2.66,7.47v28.31a2.38,2.38,0,0,1-.64,1.83,2.28,2.28,0,0,1-1.74.55,2.1,2.1,0,0,1-2.34-2.38V276.81q-.41.64-.73,1.19a2.58,2.58,0,0,1-2,.87,3.11,3.11,0,0,1-2.06-.69,1.93,1.93,0,0,1-.73-1.65,4.07,4.07,0,0,1,.64-1.56,72.18,72.18,0,0,0,8-18.23A2.1,2.1,0,0,1,60.25,255.24Zm7.52,2.2H86.32q2.75,0,2.75,2.79v9.71a2.41,2.41,0,0,1-2.75,2.7H79.17v3.71H89.8a2.51,2.51,0,0,1,1.69.46,2.23,2.23,0,0,1,.5,1.74,2,2,0,0,1-.46,1.47,2.1,2.1,0,0,1-1.74.69H82.75a61.39,61.39,0,0,0,8.66,10.49,2.08,2.08,0,0,1,.78,1.6,1.79,1.79,0,0,1-.92,1.51,3.63,3.63,0,0,1-1.88.5q-1.46,0-3.21-2.11a88.22,88.22,0,0,1-7-10.22v12.74a2.11,2.11,0,0,1-2.38,2.38A2.42,2.42,0,0,1,75,297a2.33,2.33,0,0,1-.6-1.79V282.45a37.82,37.82,0,0,1-8.29,12,3.23,3.23,0,0,1-2.2,1,2.71,2.71,0,0,1-1.65-.74,1.66,1.66,0,0,1-.55-1.28,1.7,1.7,0,0,1,.37-1.1,49.29,49.29,0,0,0,8.57-11.59H64.1a2.47,2.47,0,0,1-1.65-.5,2,2,0,0,1-.55-1.65,2.58,2.58,0,0,1,.55-1.74,2.65,2.65,0,0,1,1.65-.46H74.41v-3.71H67.77a2.39,2.39,0,0,1-2.7-2.7v-9.71Q65.06,257.44,67.77,257.44Zm15.58,11a.85.85,0,0,0,1-1v-4.9a.85.85,0,0,0-1-1H70.74a.85.85,0,0,0-1,1v4.9a.85.85,0,0,0,1,1Z"/><path class="cls-1" d="M101.45,263.48H113a1.87,1.87,0,0,1,2.2,2.24,2.48,2.48,0,0,1-.37,1.47,2.23,2.23,0,0,1-1.83.73H101.45a2.33,2.33,0,0,1-1.65-.55,2,2,0,0,1-.55-1.65,1.91,1.91,0,0,1,2.2-2.24Zm2,19.43h7.7q3.34,0,3.34,3.34v6.55q0,3.34-3.34,3.34h-7.7q-3.25,0-3.25-3.34v-6.55Q100.21,282.91,103.47,282.91Zm-1.05-12.6h10.08a2.58,2.58,0,0,1,1.51.37,1.81,1.81,0,0,1,.64-.92,32.15,32.15,0,0,0,5.55-6.83,1.36,1.36,0,0,1,.59-.37,1.63,1.63,0,0,1-.41-1.1H118a2.25,2.25,0,0,1-1.55-.46,2,2,0,0,1-.46-1.56,2.17,2.17,0,0,1,.46-1.51,2.11,2.11,0,0,1,1.55-.5h2.38v-.37a2.39,2.39,0,0,1,.41-1.47,2.27,2.27,0,0,1,1.79-.55c.86,0,1.37.14,1.56.41a2,2,0,0,1,.6,1.6v.37h7.37v-.55a2.38,2.38,0,0,1,.41-1.47,2.26,2.26,0,0,1,1.79-.55q1.28,0,1.6.41a2,2,0,0,1,.55,1.6v.55h3a2.3,2.3,0,0,1,1.6.5,2,2,0,0,1,.41,1.51,1.77,1.77,0,0,1-2,2h-3a2,2,0,0,1-.46,1.33,2.45,2.45,0,0,1-1.7.51,2.63,2.63,0,0,1-1.74-.51,1.62,1.62,0,0,1-.46-1.33h-7.37a1.89,1.89,0,0,1-.46,1.15,1.76,1.76,0,0,1-1.05.46,1.35,1.35,0,0,1,.27,1.7H128q.14-.41.27-.87a2.1,2.1,0,0,1,2.2-1.28,3.42,3.42,0,0,1,1.6.32,1.53,1.53,0,0,1,.73,1.33,2.59,2.59,0,0,1-.09.51h6.92a1.46,1.46,0,0,1,1.19.37,1.55,1.55,0,0,1,.46,1.33,2.38,2.38,0,0,1-.28,1.24,1.55,1.55,0,0,1-1.37.59h-7.19v1.47h6.65a1.78,1.78,0,0,1,1.23.32,2.39,2.39,0,0,1,.09,2.38,1.48,1.48,0,0,1-1.33.55h-6.65v1.51h6.65a1.33,1.33,0,0,1,1.6,1.65,1.61,1.61,0,0,1-.27,1.05,1.44,1.44,0,0,1-1.33.6h-6.65v1.42h7.19a1.46,1.46,0,0,1,1.65,1.65q0,1.83-1.65,1.83H120.69q-3.67,0-3.67-3.67v-6a2.82,2.82,0,0,1-.69.09,2.35,2.35,0,0,1-1.69-.73.3.3,0,0,1-.14-.14,2.17,2.17,0,0,1-.36,1.37,2,2,0,0,1-1.65.64H102.41a2.25,2.25,0,0,1-1.56-.46,2.06,2.06,0,0,1-.46-1.56,1.66,1.66,0,0,1,2-2Zm-.18-13.56h10.08a2.11,2.11,0,0,1,1.37.41q.46.32.46,1.6a2.42,2.42,0,0,1-.28,1.37,1.86,1.86,0,0,1-1.55.64H102.23a1.71,1.71,0,0,1-1.33-.5,1.79,1.79,0,0,1-.51-1.51,2.08,2.08,0,0,1,.51-1.65A1.86,1.86,0,0,1,102.23,256.75Zm.18,19.79h10.08A2.33,2.33,0,0,1,114,277a2.14,2.14,0,0,1,.46,1.6,2.18,2.18,0,0,1-.36,1.37,2.14,2.14,0,0,1-1.65.6H102.41a2.24,2.24,0,0,1-1.56-.46,2,2,0,0,1-.46-1.51,2.56,2.56,0,0,1,.46-1.6A2.44,2.44,0,0,1,102.41,276.54Zm6.92,15.58c.52,0,.78-.25.78-.73v-3.67a.69.69,0,0,0-.78-.78h-4c-.46,0-.69.26-.69.78v3.67c0,.49.23.73.69.73Zm7.88-8.06h20.57a3,3,0,0,1,1.6.37,1.56,1.56,0,0,1,.78,1.28,3.72,3.72,0,0,1-1.1,2.57,22.65,22.65,0,0,1-5.73,4.22,24.74,24.74,0,0,0,6.09.73q2.2,0,2.2,2a2.29,2.29,0,0,1-2.56,2.2,26,26,0,0,1-6.73-1,38.41,38.41,0,0,1-4.17-1.47A31.66,31.66,0,0,1,117,297.43a1.62,1.62,0,0,1-1.33-.51,2.55,2.55,0,0,1-.5-1.33,1.66,1.66,0,0,1,1.47-1.83,42.52,42.52,0,0,0,7-1.28,15.47,15.47,0,0,1-3.85-3.71,5.7,5.7,0,0,1-.73-1.42h-1.88q-1.19-.09-1.24-1.65C116,284.63,116.42,284.08,117.21,284.05Zm10.86-14.3v-1.47h-6.41v1.47Zm0,4.77V273h-6.41v1.51Zm0,4.72v-1.42h-6.41v.73q0,.69.55.69Zm-4.26,8.11a9,9,0,0,0,3,2.52c.58.34,1.16.64,1.74.92a18.39,18.39,0,0,0,5.22-2.89c0-.37-.06-.55-.18-.55Z"/><path class="cls-1" d="M150,264.08h2.34v-6.64a2.29,2.29,0,0,1,.73-1.74,2.15,2.15,0,0,1,1.65-.64,2.35,2.35,0,0,1,1.74.64,2.26,2.26,0,0,1,.69,1.74v6.64h2.75a2.32,2.32,0,0,1,1.6.46c.37.27.55.91.55,1.92a3,3,0,0,1-.32,1.65,2.21,2.21,0,0,1-1.83.69h-2.75v26.43a2.27,2.27,0,0,1-.51,1.51,2.09,2.09,0,0,1-1.92.87,2.21,2.21,0,0,1-1.83-.87,2.14,2.14,0,0,1-.55-1.51V268.8H150a2.29,2.29,0,0,1-1.6-.51,2.31,2.31,0,0,1-.6-1.83,2.53,2.53,0,0,1,.6-2A2.41,2.41,0,0,1,150,264.08Zm24-9.35a3.38,3.38,0,0,1,2,.59,1.69,1.69,0,0,1,.59,1.42,13.63,13.63,0,0,1-.32,2.7h9.44a4.46,4.46,0,0,1,3.07.92q1,.69,1,3.34,0,3.76-.14,5.91-.32,2.93-2.15,3.89a7.32,7.32,0,0,1-3.57.82l-2-.09a2.65,2.65,0,0,1,.32,1.19V278H187a4,4,0,0,1,2.61.73q.87.64.87,2.93,0,5.68-.14,8.71-.27,4.44-1.56,5.82a3.42,3.42,0,0,1-2.52,1.24,14.05,14.05,0,0,1-5.31-.78,2.44,2.44,0,0,1-1-2.2,2.21,2.21,0,0,1,.69-1.24,1.74,1.74,0,0,1,1.33-.6,5.05,5.05,0,0,1,.87.09,9.8,9.8,0,0,0,2.47.32q.55,0,.64-2,0-2.52,0-8.34c0-.34-.06-.51-.18-.51H182a46.63,46.63,0,0,1-.69,5.22,23,23,0,0,1-3.53,9,3.23,3.23,0,0,1-2.34,1c-.7,0-1.15-.23-1.33-.6a1.29,1.29,0,0,1-.37-.87A2,2,0,0,1,174,295a19.75,19.75,0,0,0,3.57-8.52,36.68,36.68,0,0,0,.51-4.31h-1.28c-1.1,0-1.65-.61-1.65-1.83q0-2.38,1.65-2.38h1.42v-2.38a2,2,0,0,1,.6-1.51l.28-.18a6.73,6.73,0,0,1-2.29-.73,2.45,2.45,0,0,1-1-2.2,2.34,2.34,0,0,1,.73-1.37,1.65,1.65,0,0,1,1.28-.64c.34,0,.78.09,1.33.18a16.11,16.11,0,0,0,3.85.59c.94,0,1.5-.36,1.65-1.1a37,37,0,0,0,.18-4.4c0-.37-.12-.55-.37-.55h-9.21a20.39,20.39,0,0,1-2.34,4.76,18.23,18.23,0,0,1-6,5.54,4.7,4.7,0,0,1-.64.28.3.3,0,0,0,.14.14,1.91,1.91,0,0,1,.51,1.37V278h4.22a4,4,0,0,1,2.61.73q.87.64.87,2.93,0,5.73-.18,8.8-.28,4.53-1.69,5.86a4.05,4.05,0,0,1-2.89,1.28q-3.44,0-4.76-1a2.44,2.44,0,0,1-1-2.2,2.14,2.14,0,0,1,.73-1.24,1.7,1.7,0,0,1,1.28-.6,2.65,2.65,0,0,1,.73.14,5.16,5.16,0,0,0,2.06.46q1,0,1.15-2,.09-2.56.09-8.47c0-.34-.06-.51-.18-.51h-3.3a36,36,0,0,1-.87,5.41,20.89,20.89,0,0,1-4,8.84,3.5,3.5,0,0,1-2.38,1,1.5,1.5,0,0,1-1.33-.6,1.4,1.4,0,0,1-.32-.87,2,2,0,0,1,.18-.91,18.18,18.18,0,0,0,4.12-8.38,26.37,26.37,0,0,0,.6-4.45h-1.83c-1.07,0-1.6-.61-1.6-1.83q0-2.38,1.6-2.38h2.06v-2a2.47,2.47,0,0,1,.28-1.19,1.72,1.72,0,0,1-1.14-.46,2.44,2.44,0,0,1-.6-1.51,2.26,2.26,0,0,1,1.05-2,12.28,12.28,0,0,0,7.15-5.73l.73-1.37H163.9q-1.65,0-1.65-2.25,0-2,1.65-2h7.7a21.54,21.54,0,0,0,.37-2.89,1.82,1.82,0,0,1,.69-1.42A2.15,2.15,0,0,1,174,254.73Z"/><path class="cls-1" d="M218.89,254.55a11.8,11.8,0,0,1,4.49.92q8.7,3.76,16.22,6.41a1.79,1.79,0,0,1,.73,1.42,2.78,2.78,0,0,1-.87,2.11,2.54,2.54,0,0,1-1.88.69,6.44,6.44,0,0,1-2.29-.55q-1.79-.73-3.62-1.56a1.05,1.05,0,0,1-.27.64,1.7,1.7,0,0,1-1.33.5H207.85a1.92,1.92,0,0,1-1.24-.37,1.1,1.1,0,0,1-.32-.78q-1.88.83-3.44,1.47a7.17,7.17,0,0,1-2.89.64,2.79,2.79,0,0,1-2.06-1.05,3.13,3.13,0,0,1-.5-1.74,1.73,1.73,0,0,1,.73-1.24q8.75-3.3,15.9-6.55A13.08,13.08,0,0,1,218.89,254.55Zm-15.44,12.78h31q3.12,0,3.12,3.16v7q0,3.07-3.12,3.07h-31q-3.07,0-3.07-3.07v-7Q200.38,267.33,203.45,267.33ZM205,282.4h28q3.34,0,3.34,3.3v8.43q0,3.29-3.34,3.3H205q-3.35,0-3.35-3.3V285.7Q201.62,282.4,205,282.4Zm11.73-5.54V271H206.25q-1.1,0-1.1,1.15v3.66q0,1.06,1.1,1.05h4.49a.52.52,0,0,1-.09-.18q-.83-1-2.61-3.07a.48.48,0,0,1-.18-.41,2.28,2.28,0,0,1,.14-.69,2.21,2.21,0,0,1,.92-.73,2.55,2.55,0,0,1,1-.18,2.83,2.83,0,0,1,1.47.55,9.58,9.58,0,0,1,1.88,2,2.87,2.87,0,0,1,.69,1.65,1.33,1.33,0,0,1-.37,1.05Zm-10.45,11.41h25.47v-1.1a1,1,0,0,0-1.1-1.1H207.3q-1.05,0-1.05,1.1Zm24.37,5.5c.73,0,1.1-.38,1.1-1.15v-1.05H206.25v1.05q0,1.15,1.05,1.15Zm-19.93-31.89h16.4q-3.44-1.65-7.1-3.57a2.44,2.44,0,0,0-1.1-.28,2.19,2.19,0,0,0-.87.23Zm21,15q1.1,0,1.1-1.05v-3.66q0-1.15-1.1-1.15H221.23v5.87h3.07a1.49,1.49,0,0,1-.69-1.24.8.8,0,0,1,.27-.55q1.51-1.69,2.34-2.75a2.67,2.67,0,0,1,.46-.69,1.16,1.16,0,0,1,.78-.27,2.54,2.54,0,0,1,1.51.46,1.58,1.58,0,0,1,.73,1.37,1.55,1.55,0,0,1-.37.82,14.75,14.75,0,0,1-2.25,2.66l-.14.18Z"/><path class="cls-1" d="M309.24,135.67l-1.14,3.91c-.06.19,0,.32.28.39l6.36,1.86a20.35,20.35,0,0,0,2.06-4.31l-7.09-2.07C309.46,135.38,309.3,135.45,309.24,135.67Z"/><path class="cls-1" d="M329.42,141.21l-6.92-2a23.82,23.82,0,0,1-2.1,4.29l7.7,2.25c.22.06.35,0,.41-.19l1.14-3.91A.3.3,0,0,0,329.42,141.21Z"/><path class="cls-1" d="M327.23,132.22q0-.16-1.21-.53l-11.2-3.28a46.38,46.38,0,0,1-4.38,2.43l13.12,3.84Q327.07,132.75,327.23,132.22Z"/><path class="cls-1" d="M317.44,106.1A36.2,36.2,0,0,0,289.22,165l-7.61,7.12,12.52-2.1a36.21,36.21,0,1,0,23.31-63.91Zm18.13,35.68-2,6.84q-1,3.26-4.21,2.31l-7.45-2.18-2,6.84a1.35,1.35,0,0,0,1,1.9l5.21,1.52a1.63,1.63,0,0,0,.91-.22,3.62,3.62,0,0,0,1.21-2.17,2.14,2.14,0,0,1,1.2-1.24,2.23,2.23,0,0,1,1.65,0,3.5,3.5,0,0,1,2,1.28,3,3,0,0,1,.38,2.77,8.76,8.76,0,0,1-2.3,4.23,4.69,4.69,0,0,1-4.37,1l-10-2.92q-4-1.18-2.85-5.21l2.17-7.41c-.36.34-.72.69-1.06,1.06a29.31,29.31,0,0,1-14.49,6.6,6.56,6.56,0,0,1-3.81-.14,2.83,2.83,0,0,1-2-1.43,2.43,2.43,0,0,1-.4-2,2.8,2.8,0,0,1,1.43-1.7q9.38-1.37,14.79-5,.5-.34,1-.73l-7.13-2.09q-3.26-1-2.31-4.21l1.81-6.19a2.54,2.54,0,0,1-.81-.1,2.89,2.89,0,0,1-1.89-1.7,2.53,2.53,0,0,1-.29-1.9,1.81,1.81,0,0,1,1-1.15,59.07,59.07,0,0,0,13-7,3.11,3.11,0,0,1,2-.25,4.27,4.27,0,0,1,2.13,1.33,2.43,2.43,0,0,1,.42,2l0,.16,12.1,3.54q4.56,1.33,3.45,5.12-.32,1.1-4.21,3.5l2.4.7Q336.54,138.48,335.57,141.78ZM328.17,155q-.25.86-.61,1a2.82,2.82,0,0,1-2.4.36,1.52,1.52,0,0,1-1.24-1.2,26.45,26.45,0,0,0-.74-3,.64.64,0,0,1-.05-.41,1.77,1.77,0,0,1,1.35-1.29,3.47,3.47,0,0,1,1.7.1,2.93,2.93,0,0,1,1.5.92,12.34,12.34,0,0,1,.41,1.76A5.34,5.34,0,0,1,328.17,155Z"/><path class="cls-2" d="M41.35,267.56H30.14V256.36a1.56,1.56,0,0,0-1.56-1.56H14.33a1.56,1.56,0,0,0-1.56,1.56v11.21H1.56A1.56,1.56,0,0,0,0,269.13v14.25a1.56,1.56,0,0,0,1.56,1.56H12.77v11.21a1.56,1.56,0,0,0,1.56,1.57H28.58a1.56,1.56,0,0,0,1.56-1.57V284.94H41.35a1.56,1.56,0,0,0,1.57-1.56V269.13A1.56,1.56,0,0,0,41.35,267.56Z"/></svg>